<svg width="22" height="18" fill="none" xmlns="http://www.w3.org/2000/svg"><path fill-rule="evenodd" clip-rule="evenodd" d="M17.667 0a1 1 0 011 1v14.597a2.4 2.4 0 01-4.499 1.166L6.083 2.208a.4.4 0 00-.75.194V17a1 1 0 11-2 0V2.403a2.4 2.4 0 014.498-1.166l8.086 14.555a.4.4 0 00.75-.194V1a1 1 0 011-1z" fill="#fff"/><path fill-rule="evenodd" clip-rule="evenodd" d="M.667 6.333a1 1 0 011-1h18.666a1 1 0 110 2H1.667a1 1 0 01-1-1zm0 5.334a1 1 0 011-1h18.666a1 1 0 010 2H1.667a1 1 0 01-1-1z" fill="#fff"/></svg>