<svg width="168" height="57" fill="none" xmlns="http://www.w3.org/2000/svg"><path fill-rule="evenodd" clip-rule="evenodd" d="M157.638 0H10.26C1.464 0 0 3.085 0 10.421v36.223C0 53.975 3.013 57 10.25 57h147.388C164.881 57 168 53.97 168 46.635V10.42C168 3.085 164.881 0 157.638 0z" fill="#000"/><path fill-rule="evenodd" clip-rule="evenodd" d="M43.8 35.48c-.845 1.9-1.25 2.748-2.34 4.427-1.52 2.344-3.662 5.263-6.316 5.287-2.36.022-2.965-1.555-6.167-1.537-3.201.018-3.87 1.565-6.23 1.543-2.654-.025-4.684-2.661-6.204-5.004-4.251-6.554-4.695-14.246-2.074-18.335 1.863-2.906 4.802-4.608 7.566-4.608 2.813 0 4.582 1.564 6.909 1.564 2.256 0 3.632-1.566 6.884-1.566 2.46 0 5.065 1.356 6.921 3.701-6.082 3.376-5.094 12.176 1.052 14.528z" fill="#fff"/><path fill-rule="evenodd" clip-rule="evenodd" d="M33.361 14.633c1.181-1.536 2.08-3.706 1.754-5.924-1.93.135-4.19 1.379-5.508 3-1.197 1.473-2.185 3.657-1.8 5.78 2.108.066 4.288-1.21 5.554-2.856zm119.638 23.926h-8.547c.034 1.173.447 2.202 1.241 2.878.719.606 1.65.883 2.794.883 1.268 0 2.417-.217 3.456-.633l.448 2c-1.209.538-2.645.796-4.302.796-1.982 0-3.543-.59-4.678-1.774-1.133-1.184-1.704-2.775-1.704-4.768 0-1.962.53-3.589 1.582-4.894 1.113-1.387 2.607-2.08 4.486-2.08 1.851 0 3.248.692 4.194 2.08.753 1.107 1.134 2.525 1.134 4.146 0 .513-.037 1.03-.104 1.366zm-12.144-4.763c-.166-.052-.605-.074-.919-.074-1.002 0-1.785.383-2.331 1.147-.476.678-.723 1.52-.723 2.562v6.66h-2.814v-8.749c0-1.487-.061-2.819-.111-4.16h2.479l.106 2.683h.077c.298-.839.77-1.6 1.425-2.113.633-.469 1.344-.723 2.082-.723.26 0 .563-.017.729.018v2.749zm-10.299 8.768c-1.182 1.314-2.746 1.972-4.694 1.972-1.884 0-3.387-.632-4.503-1.896-1.115-1.261-1.671-2.861-1.671-4.782 0-2.01.574-3.66 1.726-4.94 1.153-1.288 2.7-1.92 4.652-1.92 1.888 0 3.399.625 4.542 1.896 1.087 1.222 1.632 2.812 1.632 4.751 0 2-.559 3.632-1.684 4.919zm-11.715-9.035h-2.98v6.202c0 1.602.491 2.396 1.599 2.396.51 0 .894-.038 1.232-.126l.064 2.186c-.564.213-1.31.322-2.224.322-1.12 0-2.035-.343-2.666-1.043-.639-.69-.984-1.859-.984-3.498V33.53h-1.821v-2.347h1.821v-2.3l2.979-.854v3.154h2.98v2.347zm-10.012 9.402c-1.163 1.053-2.775 1.576-4.844 1.576-1.917 0-3.449-.376-4.607-1.12l.662-2.404a7.875 7.875 0 004.109 1.122c1.077 0 1.91-.248 2.509-.734.594-.488.893-1.142.893-1.972 0-.72-.246-1.335-.735-1.837-.497-.497-1.308-.957-2.453-1.388-3.108-1.172-4.666-2.89-4.666-5.152 0-1.478.543-2.693 1.644-3.636 1.099-.941 2.554-1.415 4.367-1.415 1.617 0 2.963.287 4.037.853l-.719 2.352c-1.002-.55-2.141-.83-3.411-.83-1.004 0-1.791.26-2.358.746-.473.452-.711.995-.711 1.634 0 .707.273 1.298.817 1.768.476.425 1.338.886 2.582 1.384 1.535.618 2.656 1.353 3.379 2.192.719.837 1.082 1.877 1.082 3.121-.001 1.534-.53 2.784-1.577 3.74zm-16.457-.1c-1.062 1.135-2.386 1.705-3.962 1.705-1.696 0-2.838-.613-3.666-1.847v6.934H81.93V35.526c0-1.388-.052-2.666-.12-4.343h2.498l.165 2.18h.05c.955-1.51 2.392-2.341 4.326-2.341 1.513 0 2.775.588 3.785 1.802 1.014 1.209 1.518 2.8 1.518 4.776 0 2.214-.592 3.947-1.78 5.232zm-14.083 0c-1.059 1.135-2.38 1.705-3.952 1.705-1.701 0-2.834-.613-3.662-1.847v6.934h-2.813V35.526c0-1.388-.066-2.666-.138-4.343h2.505l.158 2.18h.05c.954-1.51 2.394-2.341 4.33-2.341 1.512 0 2.77.588 3.788 1.802 1.007 1.209 1.514 2.8 1.514 4.776 0 2.214-.591 3.947-1.78 5.232zm-15.232 1.26l-1.66-5.197H55.62l-1.585 5.197h-2.951l5.718-17.938h3.538l5.752 17.938h-3.035zm84.507-11.125c-.93 0-1.685.483-2.268 1.261-.474.622-.758 1.314-.844 2.32h5.934c.015-1.006-.165-1.668-.551-2.295-.495-.798-1.253-1.286-2.271-1.286zm-89.07-4.298h-.05c-.18.838-.457 1.954-.847 3.452l-1.477 4.762h4.772l-1.497-4.762c-.162-.483-.465-1.776-.902-3.452zm29.433 4.62c-.706 0-1.337.233-1.91.705a3.348 3.348 0 00-1.134 1.863c-.088.359-.139.65-.139.883v2.16c0 .947.291 1.746.865 2.396.57.644 1.32.971 2.23.971 1.078 0 1.914-.416 2.513-1.255.599-.838.9-1.941.9-3.316 0-1.261-.282-2.304-.843-3.121-.62-.852-1.447-1.287-2.482-1.287zm38.035-.18c-1.14 0-2.011.512-2.606 1.544-.515.848-.768 1.885-.768 3.11 0 1.196.253 2.214.768 3.065.609 1.03 1.472 1.542 2.584 1.542 1.083 0 1.94-.52 2.552-1.574.531-.862.796-1.895.796-3.082 0-1.188-.255-2.213-.761-3.062-.606-1.031-1.456-1.543-2.565-1.543zm-52.121.18c-.703 0-1.337.233-1.91.705-.573.478-.947 1.097-1.124 1.863-.086.359-.132.65-.132.883v2.16c0 .947.283 1.746.858 2.396.57.644 1.315.971 2.228.971 1.07 0 1.912-.416 2.509-1.255.597-.838.894-1.941.894-3.316 0-1.261-.278-2.304-.841-3.121-.619-.852-1.444-1.287-2.482-1.287z" fill="#fff"/><path d="M54.837 19.085l-.79 2.633h-1.729l2.94-9.293h2.138l2.981 9.293H58.58l-.83-2.633h-2.913zm2.627-1.282l-.721-2.29c-.177-.565-.327-1.199-.463-1.736h-.028c-.136.537-.272 1.186-.435 1.737l-.708 2.289h2.355zm4.819-2.799l1.076 3.406c.19.593.326 1.13.449 1.682h.04c.123-.552.273-1.076.45-1.682l1.048-3.406h1.77l-2.532 6.715h-1.648l-2.463-6.715h1.81zm9.504 6.714l-.11-.744h-.04c-.409.524-1.103.896-1.96.896-1.334 0-2.083-.979-2.083-2 0-1.695 1.484-2.55 3.934-2.536v-.11c0-.442-.177-1.172-1.348-1.172-.653 0-1.334.206-1.783.496l-.327-1.103c.49-.303 1.348-.593 2.396-.593 2.124 0 2.736 1.365 2.736 2.827v2.426c0 .607.028 1.2.096 1.613h-1.511zm-.218-3.281c-1.184-.028-2.314.234-2.314 1.255 0 .662.422.965.952.965.668 0 1.158-.441 1.307-.924a1.23 1.23 0 00.055-.372v-.924zm5.091-6.507h-1.687v9.789h1.688v-9.79zm3.594 1.199c0 .51-.368.91-.953.91-.558 0-.926-.4-.926-.91 0-.524.381-.924.94-.924.571 0 .925.4.939.924zm-1.784 1.875h1.688v6.715H78.47v-6.715zm3.43 6.715c.027-.455.055-1.2.055-1.89v-7.9h1.674v3.999h.027c.409-.648 1.13-1.076 2.124-1.076 1.62 0 2.777 1.365 2.763 3.406 0 2.413-1.51 3.613-3.008 3.613-.858 0-1.62-.331-2.096-1.159h-.028l-.082 1.007H81.9zm1.73-2.772c0 .138.013.276.04.4.177.676.762 1.186 1.484 1.186 1.048 0 1.688-.855 1.688-2.206 0-1.186-.558-2.151-1.675-2.151-.68 0-1.293.496-1.483 1.241a2.051 2.051 0 00-.055.441v1.09zm7.978-7.017H89.92v9.789h1.688v-9.79zm2.994 6.907c.041 1.213.98 1.737 2.042 1.737.776 0 1.335-.11 1.838-.303l.245 1.172c-.572.234-1.361.413-2.314.413-2.15 0-3.417-1.337-3.417-3.391 0-1.862 1.116-3.613 3.24-3.613 2.151 0 2.859 1.793 2.859 3.268 0 .317-.027.565-.055.717h-4.438zm2.914-1.186c.013-.62-.259-1.64-1.375-1.64-1.035 0-1.47.95-1.539 1.64h2.914zm12.047.649c0 2.467-1.716 3.57-3.404 3.57-1.878 0-3.321-1.31-3.321-3.46 0-2.207 1.429-3.558 3.43-3.558 1.974 0 3.295 1.407 3.295 3.447zm-4.996.068c0 1.296.626 2.275 1.647 2.275.953 0 1.62-.951 1.62-2.303 0-1.047-.463-2.247-1.606-2.247-1.185 0-1.661 1.158-1.661 2.275zm6.372-1.365c0-.772-.014-1.42-.054-2h1.47l.082 1.007h.04c.286-.524 1.008-1.158 2.11-1.158 1.157 0 2.356.758 2.356 2.882v3.984h-1.675v-3.791c0-.965-.354-1.696-1.266-1.696-.667 0-1.13.482-1.307.993-.054.151-.068.358-.068.551v3.944h-1.687v-4.716h-.001zm12.525-3.916v1.917h1.592v1.269h-1.592v2.964c0 .814.217 1.24.857 1.24.286 0 .504-.04.654-.082l.027 1.296c-.245.097-.681.166-1.212.166-.613 0-1.13-.207-1.443-.552-.354-.386-.517-.993-.517-1.875v-3.157h-.953v-1.27h.953v-1.516l1.634-.4zm2.858-1.157h1.688v3.998h.028c.204-.317.476-.58.83-.772a2.247 2.247 0 011.143-.304c1.13 0 2.314.759 2.314 2.91v3.957h-1.674v-3.764c0-.98-.354-1.71-1.279-1.71-.654 0-1.117.441-1.294.951-.054.138-.068.317-.068.51v4.013h-1.688v-9.79zm8.972 6.907c.041 1.213.98 1.737 2.042 1.737.776 0 1.334-.11 1.838-.303l.245 1.172c-.572.234-1.362.413-2.315.413-2.15 0-3.416-1.337-3.416-3.391 0-1.862 1.116-3.613 3.239-3.613 2.151 0 2.859 1.793 2.859 3.268 0 .317-.027.565-.054.717h-4.438zm2.913-1.186c.014-.62-.259-1.64-1.375-1.64-1.034 0-1.47.95-1.538 1.64h2.913z" fill="#fff"/></svg>