<svg width="170" height="58" fill="none" xmlns="http://www.w3.org/2000/svg"><path fill-rule="evenodd" clip-rule="evenodd" d="M158.78.828H10.952C2.129.828.66 3.886.66 11.16v35.91c0 7.268 3.022 10.267 10.282 10.267H158.78c7.265 0 10.394-3.003 10.394-10.276V11.16c0-7.274-3.129-10.332-10.394-10.332z" fill="#000"/><path d="M83.453 33.24c-3.113 0-5.577 2.337-5.577 5.582a5.538 5.538 0 005.576 5.582c3.113 0 5.577-2.337 5.577-5.582 0-3.375-2.464-5.582-5.576-5.582zm0 8.827c-1.686 0-3.113-1.428-3.113-3.375s1.427-3.375 3.112-3.375c1.686 0 3.113 1.298 3.113 3.375 0 1.947-1.427 3.375-3.112 3.375zm-12.06-8.827c-3.113 0-5.577 2.337-5.577 5.582a5.538 5.538 0 005.576 5.582c3.113 0 5.577-2.337 5.577-5.582 0-3.375-2.464-5.582-5.576-5.582zm0 8.827c-1.686 0-3.113-1.428-3.113-3.375s1.427-3.375 3.112-3.375c1.686 0 3.113 1.298 3.113 3.375 0 1.947-1.427 3.375-3.112 3.375zm-14.395-7.14v2.337h5.576c-.13 1.298-.648 2.337-1.296 2.986-.778.78-2.075 1.688-4.28 1.688-3.501 0-6.095-2.727-6.095-6.232 0-3.505 2.724-6.231 6.095-6.231 1.816 0 3.242.779 4.28 1.688l1.685-1.688c-1.426-1.298-3.242-2.337-5.835-2.337-4.669 0-8.688 3.895-8.688 8.568 0 4.674 4.02 8.569 8.688 8.569 2.593 0 4.409-.78 5.965-2.467 1.556-1.558 2.075-3.765 2.075-5.453 0-.519 0-1.038-.13-1.428h-8.04zm58.874 1.818c-.519-1.298-1.816-3.505-4.668-3.505-2.853 0-5.187 2.207-5.187 5.582 0 3.116 2.334 5.582 5.446 5.582 2.464 0 4.02-1.558 4.539-2.466l-1.816-1.299c-.648.91-1.426 1.558-2.723 1.558s-2.075-.519-2.723-1.688l7.391-3.115-.259-.65zm-7.521 1.817c0-2.077 1.686-3.245 2.853-3.245.907 0 1.815.519 2.075 1.168l-4.928 2.077zm-6.095 5.323h2.464V27.657h-2.464v16.228zm-3.89-9.477c-.649-.649-1.686-1.298-2.983-1.298-2.723 0-5.317 2.466-5.317 5.582 0 3.116 2.464 5.453 5.317 5.453 1.297 0 2.334-.65 2.853-1.299h.13v.78c0 2.077-1.168 3.245-2.983 3.245-1.426 0-2.464-1.039-2.723-1.948l-2.075.91c.648 1.427 2.204 3.245 4.928 3.245 2.853 0 5.187-1.688 5.187-5.713V33.5h-2.335v.909zm-2.853 7.66c-1.686 0-3.113-1.429-3.113-3.376 0-1.947 1.427-3.375 3.113-3.375 1.685 0 2.982 1.428 2.982 3.375s-1.297 3.375-2.982 3.375zm31.641-14.41h-5.836v16.227h2.464v-6.102h3.372c2.723 0 5.317-1.947 5.317-5.063 0-3.115-2.594-5.063-5.317-5.063zm.13 7.789h-3.502v-5.583h3.502c1.815 0 2.853 1.558 2.853 2.726-.13 1.429-1.168 2.857-2.853 2.857zm14.913-2.337c-1.816 0-3.631.779-4.28 2.467l2.205.908c.519-.908 1.297-1.168 2.204-1.168 1.297 0 2.464.78 2.594 2.077v.13c-.389-.26-1.427-.65-2.464-.65-2.334 0-4.668 1.3-4.668 3.636 0 2.207 1.945 3.635 4.02 3.635 1.685 0 2.464-.78 3.112-1.558h.13v1.298h2.334v-6.231c-.259-2.856-2.464-4.544-5.187-4.544zm-.26 8.957c-.778 0-1.945-.389-1.945-1.428 0-1.298 1.427-1.687 2.594-1.687 1.037 0 1.556.26 2.204.52-.259 1.557-1.556 2.595-2.853 2.595zm13.616-8.568l-2.723 7.01h-.129l-2.853-7.01h-2.594l4.28 9.866-2.464 5.453h2.464l6.613-15.319h-2.594zm-21.785 10.386h2.464V27.657h-2.464v16.228zM52.961 18.018h4.04a3.412 3.412 0 01.08.726c.001.53-.08 1.03-.24 1.498a3.469 3.469 0 01-.76 1.256 3.81 3.81 0 01-1.324.91c-.514.216-1.101.323-1.761.323a4.456 4.456 0 01-1.692-.322 4.205 4.205 0 01-2.314-2.265 4.25 4.25 0 01-.346-1.722c0-.623.116-1.197.346-1.723.23-.526.54-.982.932-1.366a4.213 4.213 0 011.382-.898 4.453 4.453 0 011.692-.323c.667 0 1.264.115 1.79.345.525.231.976.55 1.352.957l-1.07 1.049a2.862 2.862 0 00-.898-.651c-.33-.15-.725-.225-1.186-.225-.376 0-.733.067-1.07.202a2.683 2.683 0 00-.887.57 2.723 2.723 0 00-.604.893c-.15.35-.224.74-.224 1.17 0 .43.074.82.224 1.17a2.67 2.67 0 001.502 1.463c.338.134.698.201 1.082.201.438 0 .808-.063 1.111-.19a2.6 2.6 0 00.777-.49 1.87 1.87 0 00.397-.524 2.99 2.99 0 00.26-.709h-2.59v-1.325zm6.964-2.247v1.913h3.304v1.475h-3.304v1.913h3.672v1.475h-5.226v-8.25h5.226v1.474h-3.672zm6.85 6.776v-6.776h-2.302v-1.475h6.158v1.476H68.33v6.775h-1.554zm9.047-8.251h-1.554v8.251h1.554v-8.25zm3.408 8.251v-6.776h-2.302v-1.475h6.158v1.476h-2.302v6.775H79.23zm11.165.185a4.337 4.337 0 01-1.71-.335 4.197 4.197 0 01-1.363-.916 4.236 4.236 0 01-.904-1.371 4.354 4.354 0 01-.328-1.688c0-.6.11-1.162.328-1.689a4.23 4.23 0 01.904-1.37 4.202 4.202 0 011.364-.917 4.335 4.335 0 011.709-.334c.614 0 1.184.111 1.71.334.525.223.98.528 1.364.916.383.388.684.845.903 1.371.219.527.328 1.09.328 1.689s-.11 1.162-.328 1.688a4.26 4.26 0 01-.903 1.371 4.203 4.203 0 01-1.364.916 4.339 4.339 0 01-1.71.335zm0-1.476c.384 0 .743-.069 1.076-.207a2.62 2.62 0 001.462-1.47c.142-.349.213-.735.213-1.157 0-.423-.07-.809-.213-1.158a2.623 2.623 0 00-1.462-1.47 2.783 2.783 0 00-1.076-.207c-.384 0-.742.069-1.076.207a2.618 2.618 0 00-1.462 1.47 3.05 3.05 0 00-.213 1.158c0 .422.07.808.213 1.158a2.615 2.615 0 001.462 1.469c.334.138.692.207 1.076.207zm5.56-6.96h1.807l3.315 5.532h.093l-.093-1.59v-3.942h1.543v8.251h-1.635l-3.499-5.842h-.092l.092 1.59v4.252h-1.53v-8.25z" fill="#fff"/><path fill-rule="evenodd" clip-rule="evenodd" d="M36.644 24.107L16.473 12.49l15.933 15.869 4.238-4.25zM14.6 12.607c-.077.14-.16.302-.16.48v32.877c0 .103.053.2.08.291l16.874-16.922L14.6 12.607zm17.808 17.698l-16.543 16.59a.981.981 0 00.144-.067L36.91 34.79l-4.503-4.484zM44.55 28.66l-6.67-3.841-4.497 4.51 4.767 4.748 6.4-3.687a.999.999 0 000-1.73z" fill="#fff"/></svg>